<svg xmlns="http://www.w3.org/2000/svg" xmlns:xlink="http://www.w3.org/1999/xlink" width="500" zoomAndPan="magnify" viewBox="0 0 375 374.999991" height="500" preserveAspectRatio="xMidYMid meet" version="1.0"><defs><clipPath id="71e5d50cbf"><path d="M 27 25.332031 L 352 25.332031 L 352 350 L 27 350 Z M 27 25.332031 " clip-rule="nonzero"/></clipPath></defs><rect x="-37.5" width="450" fill="#ffffff" y="-37.499999" height="449.999989" fill-opacity="1"/><rect x="-37.5" width="450" fill="#ffffff" y="-37.499999" height="449.999989" fill-opacity="1"/><g clip-path="url(#71e5d50cbf)"><path fill="#e9e3de" d="M 189.582031 25.304688 C 184.527344 25.304688 179.492188 26.277344 174.664062 28.183594 L 60.8125 72.964844 C 52.621094 76.183594 52.464844 87.722656 60.574219 91.15625 L 181.609375 142.457031 C 184.164062 143.539062 186.867188 144.070312 189.582031 144.070312 C 192.300781 144.070312 195.015625 143.539062 197.558594 142.457031 L 318.589844 91.15625 C 326.699219 87.722656 326.542969 76.183594 318.351562 72.964844 L 204.5 28.183594 C 199.675781 26.277344 194.640625 25.304688 189.582031 25.304688 Z M 197.132812 49.203125 L 239.566406 64.992188 C 258.976562 72.210938 262.1875 79.988281 248.304688 85.558594 C 238.800781 89.371094 222.777344 89.664062 211.339844 86.296875 L 210.230469 86.746094 C 222.398438 92.15625 223.066406 99.429688 211.578125 104.042969 C 195.988281 110.285156 173.382812 109.011719 153.121094 100.765625 L 111.824219 84 Z M 203.261719 62.351562 L 181.214844 71.300781 L 196.210938 77.082031 C 207.132812 81.300781 217.273438 81.984375 224.382812 79.117188 C 231.4375 76.265625 229.984375 72.429688 220.183594 68.738281 Z M 168.988281 76.265625 L 144.566406 86.167969 L 161.964844 93.164062 C 173.402344 97.746094 184.058594 98.457031 192.277344 95.144531 C 200.332031 91.898438 198.097656 87.632812 186.230469 82.996094 Z M 39.320312 113.335938 C 32.859375 114.027344 27.359375 119.464844 27.359375 126.644531 L 27.359375 262.460938 C 27.359375 277.980469 36.023438 291.910156 49.9375 298.792969 C 49.9375 298.792969 112.527344 329.601562 149.527344 347.746094 C 161.804688 353.761719 176.0625 344.789062 176.0625 331.136719 L 176.0625 188.269531 C 176.0625 176.871094 169.261719 166.578125 158.769531 162.128906 L 45.921875 114.339844 C 43.71875 113.40625 41.476562 113.105469 39.320312 113.335938 Z M 339.84375 113.335938 C 337.691406 113.105469 335.445312 113.40625 333.242188 114.339844 L 220.394531 162.128906 C 209.90625 166.578125 203.101562 176.871094 203.101562 188.269531 L 203.101562 331.136719 C 203.101562 344.804688 217.363281 353.773438 229.636719 347.769531 C 266.636719 329.628906 329.230469 298.820312 329.230469 298.820312 C 343.140625 291.925781 351.804688 277.980469 351.804688 262.460938 L 351.804688 126.644531 C 351.804688 119.464844 346.308594 114.027344 339.84375 113.335938 Z M 85.15625 173.324219 L 105.964844 182.328125 L 136.140625 300.351562 L 116.339844 290.6875 L 109.84375 262.832031 L 80.113281 248.730469 L 73.75 269.90625 L 56.535156 261.539062 Z M 296.382812 173.613281 C 308.726562 173.859375 317.148438 183.363281 318.0625 199.464844 L 301.71875 206.777344 C 300.082031 195.757812 292.679688 191.285156 282.867188 195.554688 C 269.753906 201.289062 261.503906 218.472656 261.503906 240.441406 C 261.503906 262.410156 269.75 272.152344 282.917969 265.894531 C 292.789062 261.203125 300.136719 250.503906 301.769531 238.488281 L 318.113281 230.855469 C 316.734375 253.363281 302.601562 275.304688 282.867188 284.90625 C 258.574219 296.71875 243.183594 283.09375 243.183594 248.785156 C 243.183594 214.542969 258.519531 186.914062 282.867188 176.546875 C 287.714844 174.476562 292.269531 173.53125 296.382812 173.613281 Z M 94.425781 198.671875 L 83.890625 234.023438 L 106.042969 244.347656 L 95.480469 199.144531 Z M 94.425781 198.671875 " fill-opacity="1" fill-rule="nonzero"/></g></svg>